<?xml version="1.0" encoding="UTF-8" standalone="no"?>
<!DOCTYPE svg PUBLIC "-//W3C//DTD SVG 1.1//EN" "http://www.w3.org/Graphics/SVG/1.1/DTD/svg11.dtd">
<svg width="100%" height="100%" viewBox="0 0 3717 671" version="1.1" xmlns="http://www.w3.org/2000/svg" xmlns:xlink="http://www.w3.org/1999/xlink" xml:space="preserve" xmlns:serif="http://www.serif.com/" style="fill-rule:evenodd;clip-rule:evenodd;stroke-linejoin:round;stroke-miterlimit:2;">
    <g transform="matrix(1,0,0,1,-7474.28,-6301.28)">
        <g transform="matrix(1,0,0,1,4043,0)">
            <path d="M3747.08,6793.83C3761.25,6782.11 3779.08,6775.7 3797.47,6775.7L4082.88,6775.7L4082.88,6962L3431.28,6962L3431.28,6775.7L3648.14,6613.03L3826.15,6479.83L3826.15,6460.28L3794,6484.34C3783.28,6492.36 3770.26,6496.69 3756.87,6496.69L3431.28,6496.69L3431.28,6310.39L4082.88,6310.39L4082.88,6496.69L3709.14,6805.64L3709.14,6825.18L3747.08,6793.83ZM4165.35,6310.39L4724.48,6310.39L4724.48,6496.92L4552.51,6496.92L4552.51,6962.79L4338.23,6962.79L4338.23,6496.92L4165.35,6496.92L4165.35,6310.39ZM5192.17,6725.76L5192.17,6310.39L5406.45,6310.39L5406.45,6757.15C5407.36,6843.59 5360.96,6899.55 5303.18,6930.03C5264.51,6952.32 5215.37,6963.24 5172.61,6968.7C5151.23,6971.43 5129.39,6972.34 5107.55,6971.89C5037.49,6971.89 4949.23,6957.33 4887.36,6914.57C4840.49,6882.72 4808.19,6831.76 4808.19,6757.15L4808.19,6310.39L5022.48,6310.39L5022.48,6725.76C5022.48,6744.41 5031.12,6759.43 5047.95,6769.89C5064.78,6780.35 5084.8,6785.81 5107.55,6785.81C5129.84,6785.81 5149.86,6780.35 5166.69,6769.89C5183.53,6759.43 5192.17,6744.41 5192.17,6725.76ZM5499.26,6310.39L5796.8,6310.39C5890.06,6310.39 5973.32,6340.87 6034.28,6395.01C6095.25,6449.15 6132.55,6534.68 6132.55,6636.59C6132.55,6738.5 6095.25,6824.49 6034.28,6878.62C5973.32,6932.76 5890.06,6962.79 5796.8,6962.79L5499.26,6962.79L5499.26,6310.39ZM5713.54,6776.26L5796.8,6776.26C5835.93,6776.26 5867.32,6764.89 5891.43,6742.14C5915.54,6719.85 5927.37,6684.36 5927.37,6636.59C5927.37,6588.82 5915.54,6553.79 5891.88,6531.04C5867.77,6508.29 5836.38,6496.92 5796.8,6496.92L5713.54,6496.92L5713.54,6776.26ZM6197.61,6310.39L6411.89,6310.39L6411.89,6962.79L6197.61,6962.79L6197.61,6310.39ZM6918.71,6957.33C6817.25,6986.45 6695.33,6971.89 6614.8,6913.65C6559.3,6875.44 6516.53,6822.66 6494.24,6751.24C6482.86,6715.75 6477.4,6677.54 6477.4,6636.59C6477.4,6595.65 6482.86,6557.43 6494.24,6521.94C6505.61,6486.46 6521.53,6455.07 6542.01,6428.22C6583.41,6374.54 6639.37,6335.41 6706.7,6315.85C6808.15,6286.73 6930.08,6301.29 7011.06,6359.07C7066.57,6397.74 7108.42,6450.97 7131.17,6521.94C7142.54,6557.43 7148,6595.65 7148,6636.59C7148,6677.54 7142.54,6715.75 7131.17,6751.24C7119.79,6787.18 7103.87,6818.11 7083.4,6844.96C7042.45,6898.19 6986.04,6937.77 6918.71,6957.33ZM6725.81,6739.41C6748.1,6763.07 6777.22,6774.9 6812.7,6774.9C6848.19,6774.9 6877.31,6763.07 6900.05,6739.41C6922.35,6716.21 6933.72,6681.63 6933.72,6636.59C6933.72,6591.55 6922.35,6557.43 6900.05,6533.77C6877.76,6510.11 6848.64,6498.28 6812.7,6498.28C6777.22,6498.28 6748.1,6510.11 6725.81,6533.77C6703.06,6557.43 6691.69,6591.55 6691.69,6636.59C6691.69,6681.63 6703.06,6716.21 6725.81,6739.41Z" style="fill:rgb(128,0,255);"/>
        </g>
    </g>
</svg>
