<svg xmlns="http://www.w3.org/2000/svg" width="100%" height="100%" viewBox="0 0 1790 549" fill-rule="nonzero" stroke-linejoin="round" stroke-miterlimit="2" fill="#fff" xmlns:v="https://vecta.io/nano"><path d="M253.719 130.015c-74.467 0-117.421 33.977-117.421 92.952 0 54.222 28.695 79.045 99.817 85.03 35.737 2.817 46.3 8.802 46.3 20.949 0 15.14-13.555 22.358-42.603 22.358-36.089 0-71.122-12.323-97.176-33.625h-3.345v78.164c22.358 14.788 56.334 21.83 103.514 21.83 74.115 0 115.309-32.392 115.309-90.312 0-55.983-28.695-80.805-100.169-87.671-35.385-3.345-45.419-8.802-45.419-20.949 0-14.788 13.907-22.358 39.962-22.358 34.505 0 65.664 11.443 84.149 30.28h3.345V148.5c-16.9-10.915-52.109-18.485-86.262-18.485zm279.03 72.355h76.931v-68.13H378.359v68.13h77.812v211.08h76.579V202.37zm355.434-68.129h-73.939v153.864c0 41.371-15.668 61.44-47.708 61.44-31.864 0-47.532-20.069-47.532-61.44V134.241h-76.403v159.322c0 83.27 39.962 124.112 121.999 124.112 82.741 0 123.583-40.843 123.583-124.112V134.241zm49.644 0V413.45h114.957c95.944 0 148.933-49.997 148.933-139.604s-52.989-139.604-148.933-139.604H937.827zm76.579 211.079V202.37h33.624c51.405 0 76.227 23.414 76.227 71.475 0 47.885-24.822 71.475-76.227 71.475h-33.624zm226.747-211.079h76.579v279.385h-76.579zm263.889-4.226c-86.614 0-147.701 59.68-147.701 143.83s61.087 143.83 147.701 143.83 147.701-59.68 147.701-143.83-61.087-143.83-147.701-143.83zm0 68.13c42.075 0 70.242 30.632 70.242 75.7s-28.167 75.7-70.242 75.7-70.242-30.632-70.242-75.7 28.167-75.7 70.242-75.7z"/></svg>