<?xml version="1.0" encoding="UTF-8" standalone="no"?>
<!DOCTYPE svg PUBLIC "-//W3C//DTD SVG 1.1//EN" "http://www.w3.org/Graphics/SVG/1.1/DTD/svg11.dtd">
<svg width="100%" height="100%" viewBox="0 0 1018 179" version="1.1" xmlns="http://www.w3.org/2000/svg" xmlns:xlink="http://www.w3.org/1999/xlink" xml:space="preserve" xmlns:serif="http://www.serif.com/" style="fill-rule:evenodd;clip-rule:evenodd;stroke-linejoin:round;stroke-miterlimit:2;">
    <g transform="matrix(1,0,0,1,-619.662,3827.84)">
        <g transform="matrix(0.70146,4.29521e-17,-4.29521e-17,0.70146,-13046.1,-1667.57)">
            <g>
                <path d="M-1328.82,549.493C-1339.58,534.074 -1350.48,518.744 -1361.93,503.825C-1368.17,495.698 -1374.47,487.55 -1381.2,479.82C-1384.05,476.551 -1387.15,473.476 -1390.16,470.366C-1397.63,462.672 -1405.24,455.11 -1412.95,447.664C-1417.55,443.222 -1422.09,438.64 -1426.95,434.475C-1433.41,428.933 -1440.12,423.651 -1446.82,418.405C-1461.58,406.843 -1476.73,395.784 -1492.13,385.075C-1474.89,379.617 -1457.59,374.374 -1440.26,369.217C-1430.5,366.311 -1420.7,363.533 -1410.95,360.555C-1390.2,372.226 -1372.25,388.326 -1355.36,404.919C-1336.07,423.861 -1317.63,444.431 -1304.37,468.153C-1307.32,477.945 -1310.11,487.785 -1313.02,497.592C-1318.15,514.933 -1323.37,532.247 -1328.82,549.493ZM-1328.82,549.493C-1323.37,566.739 -1318.15,584.053 -1313.02,601.394C-1310.11,611.201 -1307.32,621.042 -1304.37,630.833C-1317.63,654.556 -1336.07,675.126 -1355.36,694.068C-1372.25,710.66 -1390.2,726.76 -1410.95,738.431C-1420.7,735.454 -1430.5,732.676 -1440.26,729.77C-1457.59,724.613 -1474.89,719.37 -1492.13,713.912C-1476.73,703.203 -1461.58,692.144 -1446.82,680.582C-1440.12,675.335 -1433.41,670.053 -1426.95,664.512C-1422.09,660.347 -1417.55,655.765 -1412.95,651.323C-1405.24,643.876 -1397.63,636.314 -1390.16,628.62C-1387.15,625.511 -1384.05,622.435 -1381.2,619.166C-1374.47,611.436 -1368.17,603.289 -1361.93,595.162C-1350.48,580.242 -1339.58,564.912 -1328.82,549.493Z"/>
                <path d="M-1667.23,549.493C-1656.47,564.912 -1645.57,580.242 -1634.12,595.162C-1627.88,603.289 -1621.58,611.436 -1614.85,619.166C-1612,622.435 -1608.9,625.511 -1605.88,628.62C-1598.42,636.314 -1590.81,643.876 -1583.1,651.323C-1578.5,655.765 -1573.95,660.347 -1569.1,664.512C-1562.64,670.053 -1555.93,675.335 -1549.23,680.582C-1534.47,692.144 -1519.32,703.203 -1503.92,713.912C-1521.16,719.37 -1538.46,724.613 -1555.79,729.77C-1565.55,732.676 -1575.35,735.454 -1585.1,738.431C-1605.85,726.76 -1623.8,710.66 -1640.69,694.068C-1659.98,675.126 -1678.42,654.556 -1691.68,630.833C-1688.73,621.042 -1685.94,611.201 -1683.03,601.394C-1677.9,584.053 -1672.68,566.739 -1667.23,549.493ZM-1667.23,549.493C-1672.68,532.247 -1677.9,514.933 -1683.03,497.592C-1685.94,487.785 -1688.73,477.945 -1691.68,468.153C-1678.42,444.431 -1659.98,423.861 -1640.69,404.919C-1623.8,388.326 -1605.85,372.226 -1585.1,360.555C-1575.35,363.533 -1565.55,366.311 -1555.79,369.217C-1538.46,374.374 -1521.16,379.617 -1503.92,385.075C-1519.32,395.784 -1534.47,406.843 -1549.23,418.405C-1555.93,423.651 -1562.64,428.933 -1569.1,434.475C-1573.95,438.64 -1578.5,443.222 -1583.1,447.664C-1590.81,455.11 -1598.42,462.672 -1605.88,470.366C-1608.9,473.476 -1612,476.551 -1614.85,479.82C-1621.58,487.55 -1627.88,495.698 -1634.12,503.825C-1645.57,518.744 -1656.47,534.074 -1667.23,549.493Z"/>
            </g>
        </g>
        <g transform="matrix(1,0,0,1,-5631.19,634)">
            <g transform="matrix(1,0,0,1,-840,2.50111e-12)">
                <path d="M-8262.74,-1916.11C-8272.48,-1929.94 -8281.66,-1944.17 -8290.32,-1958.71C-8277.81,-1980.88 -8261.49,-2000.54 -8243.53,-2018.5C-8225.57,-2036.46 -8205.9,-2052.78 -8183.74,-2065.3C-8169.2,-2056.64 -8154.97,-2047.46 -8141.14,-2037.72C-8154.03,-2028.64 -8166.58,-2019.08 -8178.76,-2009.06C-8184.87,-2004.03 -8190.98,-1998.95 -8196.82,-1993.61C-8200.61,-1990.15 -8204.18,-1986.42 -8207.82,-1982.79C-8211.45,-1979.16 -8215.18,-1975.58 -8218.64,-1971.79C-8223.98,-1965.95 -8229.06,-1959.84 -8234.09,-1953.73C-8244.11,-1941.56 -8253.67,-1929 -8262.74,-1916.11ZM-8141.14,-2037.72C-8127.3,-2047.46 -8113.07,-2056.64 -8098.53,-2065.3C-8076.37,-2052.78 -8056.71,-2036.46 -8038.74,-2018.5C-8020.78,-2000.54 -8004.47,-1980.88 -7991.95,-1958.71C-8000.61,-1944.17 -8009.79,-1929.94 -8019.53,-1916.11C-8028.61,-1929 -8038.16,-1941.56 -8048.19,-1953.73C-8053.22,-1959.84 -8058.29,-1965.95 -8063.63,-1971.79C-8067.1,-1975.58 -8070.83,-1979.16 -8074.46,-1982.79C-8078.09,-1986.42 -8081.66,-1990.15 -8085.45,-1993.61C-8091.3,-1998.95 -8097.41,-2004.03 -8103.52,-2009.06C-8115.69,-2019.08 -8128.24,-2028.64 -8141.14,-2037.72ZM-8019.53,-1916.11C-8009.79,-1902.27 -8000.61,-1888.04 -7991.95,-1873.51C-8004.47,-1851.34 -8020.78,-1831.68 -8038.74,-1813.72C-8056.71,-1795.75 -8076.37,-1779.44 -8098.53,-1766.92C-8113.07,-1775.58 -8127.3,-1784.76 -8141.14,-1794.5C-8128.24,-1803.58 -8115.69,-1813.14 -8103.52,-1823.16C-8097.41,-1828.19 -8091.3,-1833.26 -8085.45,-1838.6C-8081.66,-1842.07 -8078.09,-1845.8 -8074.46,-1849.43C-8070.83,-1853.06 -8067.1,-1856.64 -8063.63,-1860.43C-8058.29,-1866.27 -8053.22,-1872.38 -8048.19,-1878.49C-8038.16,-1890.66 -8028.61,-1903.21 -8019.53,-1916.11ZM-8141.14,-1794.5C-8154.97,-1784.76 -8169.2,-1775.58 -8183.74,-1766.92C-8205.9,-1779.44 -8225.57,-1795.75 -8243.53,-1813.72C-8261.49,-1831.68 -8277.81,-1851.34 -8290.32,-1873.51C-8281.66,-1888.04 -8272.48,-1902.27 -8262.74,-1916.11C-8253.67,-1903.21 -8244.11,-1890.66 -8234.09,-1878.49C-8229.06,-1872.38 -8223.98,-1866.27 -8218.64,-1860.43C-8215.18,-1856.64 -8211.45,-1853.06 -8207.82,-1849.43C-8204.18,-1845.8 -8200.61,-1842.07 -8196.82,-1838.6C-8190.98,-1833.26 -8184.87,-1828.19 -8178.76,-1823.16C-8166.58,-1813.14 -8154.03,-1803.58 -8141.14,-1794.5Z" style="fill:rgb(255,0,0);"/>
            </g>
        </g>
        <g transform="matrix(0.707107,-0.707107,0.707107,0.707107,-1625.09,-12803.6)">
            <path d="M-18155.9,-1994.38C-18128.8,-1990.39 -18101.9,-1985.07 -18075.5,-1978.23C-18074.6,-1974.5 -18073.6,-1970.71 -18073.2,-1966.91C-18072.3,-1959.91 -18072,-1952.77 -18071.7,-1945.73C-18071.2,-1935.86 -18071,-1925.99 -18071,-1916.11C-18071,-1906.23 -18071.2,-1896.35 -18071.7,-1886.49C-18072,-1879.44 -18072.3,-1872.31 -18073.2,-1865.31C-18073.6,-1861.5 -18074.6,-1857.72 -18075.5,-1853.98C-18101.9,-1847.15 -18128.8,-1841.83 -18155.9,-1837.83C-18154.6,-1846.23 -18153.5,-1854.65 -18152.5,-1863.08C-18151.9,-1867.81 -18151.2,-1872.57 -18150.9,-1877.32C-18150.6,-1881.58 -18150.7,-1885.89 -18150.6,-1890.16C-18150.5,-1898.81 -18150.4,-1907.46 -18150.4,-1916.11C-18150.4,-1924.76 -18150.5,-1933.41 -18150.6,-1942.06C-18150.7,-1946.32 -18150.6,-1950.64 -18150.9,-1954.9C-18151.2,-1959.65 -18151.9,-1964.41 -18152.5,-1969.14C-18153.5,-1977.57 -18154.6,-1985.99 -18155.9,-1994.38ZM-18172,-2074.78C-18165.2,-2048.3 -18159.9,-2021.44 -18155.9,-1994.38C-18164.3,-1995.62 -18172.7,-1996.74 -18181.1,-1997.74C-18185.8,-1998.3 -18190.6,-1999 -18195.3,-1999.32C-18199.6,-1999.6 -18203.9,-1999.54 -18208.2,-1999.61C-18216.8,-1999.76 -18225.5,-1999.84 -18234.1,-1999.84C-18242.8,-1999.84 -18251.4,-1999.76 -18260.1,-1999.61C-18264.4,-1999.54 -18268.7,-1999.6 -18272.9,-1999.32C-18277.7,-1999 -18282.4,-1998.3 -18287.2,-1997.74C-18295.6,-1996.74 -18304,-1995.62 -18312.4,-1994.38C-18308.4,-2021.44 -18303.1,-2048.3 -18296.3,-2074.78C-18292.5,-2075.62 -18288.7,-2076.62 -18284.9,-2077.08C-18277.9,-2077.95 -18270.8,-2078.22 -18263.8,-2078.56C-18253.9,-2079.05 -18244,-2079.27 -18234.1,-2079.27C-18224.3,-2079.27 -18214.4,-2079.05 -18204.5,-2078.56C-18197.5,-2078.22 -18190.3,-2077.95 -18183.3,-2077.08C-18179.5,-2076.62 -18175.7,-2075.62 -18172,-2074.78ZM-18392.8,-1978.23C-18366.3,-1985.07 -18339.5,-1990.39 -18312.4,-1994.38C-18313.7,-1985.99 -18314.8,-1977.57 -18315.8,-1969.14C-18316.3,-1964.41 -18317,-1959.65 -18317.3,-1954.9C-18317.6,-1950.64 -18317.6,-1946.32 -18317.6,-1942.06C-18317.8,-1933.41 -18317.9,-1924.76 -18317.9,-1916.11C-18317.9,-1907.46 -18317.8,-1898.81 -18317.6,-1890.16C-18317.6,-1885.89 -18317.6,-1881.58 -18317.3,-1877.32C-18317,-1872.57 -18316.3,-1867.81 -18315.8,-1863.08C-18314.8,-1854.65 -18313.7,-1846.23 -18312.4,-1837.83C-18339.5,-1841.83 -18366.3,-1847.15 -18392.8,-1853.98C-18393.6,-1857.72 -18394.6,-1861.5 -18395.1,-1865.31C-18396,-1872.31 -18396.2,-1879.44 -18396.6,-1886.49C-18397.1,-1896.35 -18397.3,-1906.23 -18397.3,-1916.11C-18397.3,-1925.99 -18397.1,-1935.86 -18396.6,-1945.73C-18396.2,-1952.77 -18396,-1959.91 -18395.1,-1966.91C-18394.6,-1970.71 -18393.6,-1974.5 -18392.8,-1978.23ZM-18296.3,-1757.43C-18303.1,-1783.92 -18308.4,-1810.78 -18312.4,-1837.83C-18304,-1836.59 -18295.6,-1835.48 -18287.2,-1834.48C-18282.4,-1833.92 -18277.7,-1833.22 -18272.9,-1832.9C-18268.7,-1832.62 -18264.4,-1832.68 -18260.1,-1832.6C-18251.4,-1832.45 -18242.8,-1832.38 -18234.1,-1832.38C-18225.5,-1832.38 -18216.8,-1832.45 -18208.2,-1832.6C-18203.9,-1832.68 -18199.6,-1832.62 -18195.3,-1832.9C-18190.6,-1833.22 -18185.8,-1833.92 -18181.1,-1834.48C-18172.7,-1835.48 -18164.3,-1836.59 -18155.9,-1837.83C-18159.9,-1810.78 -18165.2,-1783.92 -18172,-1757.43C-18175.7,-1756.6 -18179.5,-1755.6 -18183.3,-1755.13C-18190.3,-1754.27 -18197.5,-1754 -18204.5,-1753.65C-18214.4,-1753.17 -18224.3,-1752.94 -18234.1,-1752.94C-18244,-1752.94 -18253.9,-1753.17 -18263.8,-1753.65C-18270.8,-1754 -18277.9,-1754.27 -18284.9,-1755.13C-18288.7,-1755.6 -18292.5,-1756.6 -18296.3,-1757.43Z" style="fill:rgb(255,0,0);"/>
        </g>
        <path d="M625.854,-3652.31L619.662,-3669.51L710.134,-3781.31L626.886,-3781.31L629.982,-3825L786.846,-3825L791.318,-3810.55L698.782,-3696L794.758,-3696L792.006,-3652.31L625.854,-3652.31ZM862.25,-3652.31L862.25,-3785.56L806.378,-3785.56L808.108,-3825.37L965.094,-3825.37L968.555,-3785.56L912.93,-3785.56L912.93,-3652.31L862.25,-3652.31ZM1063.49,-3649.34C1018.99,-3649.34 984.624,-3675.3 984.624,-3727.47L984.624,-3825.37L1034.07,-3825.37L1034.07,-3729.2C1034.07,-3703.24 1045.44,-3690.14 1065.71,-3690.14C1086.97,-3690.14 1098.1,-3702.74 1098.1,-3729.2L1098.1,-3825.37L1148.78,-3825.37L1148.78,-3727.47C1148.78,-3675.3 1112.19,-3649.34 1063.49,-3649.34ZM1173.01,-3652.31L1173.01,-3825.37L1231.35,-3825.37C1302.06,-3825.37 1347.05,-3796.69 1347.05,-3741.31C1347.05,-3685.93 1301.56,-3652.31 1231.35,-3652.31L1173.01,-3652.31ZM1236.54,-3695.33C1277.83,-3695.33 1295.38,-3712.14 1295.38,-3740.57C1295.38,-3768.75 1276.1,-3782.35 1236.54,-3782.35L1223.69,-3782.35L1223.69,-3695.33L1236.54,-3695.33ZM1368.31,-3652.31L1368.31,-3825.37L1418.99,-3825.37L1418.99,-3652.31L1368.31,-3652.31ZM1538.89,-3649.84C1484.01,-3649.84 1440.25,-3687.66 1440.25,-3738.84C1440.25,-3790.01 1483.27,-3827.84 1538.89,-3827.84C1594.52,-3827.84 1637.53,-3790.01 1637.53,-3738.84C1637.53,-3687.66 1593.78,-3649.84 1538.89,-3649.84ZM1538.89,-3692.86C1562.13,-3692.86 1585.87,-3707.94 1585.87,-3738.84C1585.87,-3769.74 1562.13,-3784.82 1538.89,-3784.82C1515.65,-3784.82 1491.92,-3769.74 1491.92,-3738.84C1491.92,-3707.94 1515.65,-3692.86 1538.89,-3692.86Z" style="fill:white;"/>
    </g>
</svg>
